<svg xmlns="http://www.w3.org/2000/svg" viewBox="0 0 73.5 144.06"><path fill="#ea3434" d="M162.48,156.28c-2,1.56-3.81,3.72-3.27,6.44a5.61,5.61,0,0,0,4.31,4.16c2.29,0.58,5,.22,6.6-1.65a6.83,6.83,0,0,0,1-6.39,5.54,5.54,0,0,0-4.88-4c-2.59-.1-4.3,2.69-4.91,4.91a3.77,3.77,0,0,0,4,4.82,3.64,3.64,0,0,0,2.65-5.69,2.58,2.58,0,0,0-3.42-.9,2.52,2.52,0,0,0-.9,3.42l0.4-1.49,1.26-.34q-0.67.09-.05,0l0.9,0.9q-0.14.92,0.11,0.36,0.16-.3.34-0.6a4.27,4.27,0,0,1,.59-0.94L166,160c-0.19.08,0.06-.26,0.08,0s0.28,0.6.32,0.78c0.16,0.83.06,1.32-.68,1.39a2.61,2.61,0,0,1-1.29-.18c-0.45-.21-0.39-0.45-0.36-0.13-0.06-.69,1.39-1.6,1.9-2a2.51,2.51,0,0,0,0-3.54,2.56,2.56,0,0,0-3.54,0h0Z" transform="translate(-104.5 -124.94)"/></svg>
