<svg id="tucnak" xmlns="http://www.w3.org/2000/svg" viewBox="0 0 73.5 163.92">
	<path fill="#604a13" d="M154.34,133.36c2.74-5.55,6.91-12,7.11-18.36,0.1-3.22-4.9-3.22-5,0-0.09,3-1.69,5.76-2.9,8.42q-1.7,3.74-3.53,7.41c-1.42,2.87,2.89,5.41,4.32,2.52h0Z" transform="translate(-104.5 -105.08)"/>
	<path fill="#604a13" d="M159.69,124.28a16.89,16.89,0,0,0,12.77-16.79c0-3.21-5-3.22-5,0a11.86,11.86,0,0,1-9.1,12c-3.11.81-1.79,5.64,1.33,4.82h0Z" transform="translate(-104.5 -105.08)"/>
	<path fill="#604a13" d="M127.28,132.06c-1.47-.68-1.7-5.86-1.89-7.21-0.32-2.27-1-5.29.25-7.34,1.71-2.73-2.61-5.25-4.32-2.52-2.15,3.43-1.3,7.74-.71,11.53,0.49,3.2.76,8.3,4.15,9.86,2.9,1.34,5.45-3,2.52-4.32h0Z" transform="translate(-104.5 -105.08)"/>
	<path fill="#604a13" d="M121.72,121.82c-5.66-1.09-5.31-7.95-5.09-12.37,0.16-3.22-4.84-3.21-5,0-0.34,6.74.69,15.64,8.76,17.19,3.14,0.6,4.49-4.22,1.33-4.82h0Z" transform="translate(-104.5 -105.08)"/>
	<path fill="#604a13" d="M125.8,129.21a11.54,11.54,0,0,0,4.88-7.55,2.58,2.58,0,0,0-1.75-3.08,2.52,2.52,0,0,0-3.08,1.75,6.7,6.7,0,0,1-2.58,4.56,2.57,2.57,0,0,0-.9,3.42,2.52,2.52,0,0,0,3.42.9h0Z" transform="translate(-104.5 -105.08)"/>
	<path fill="#604a13" d="M154.45,124a19.33,19.33,0,0,1-1.77-7.72c-0.08-3.21-5.08-3.22-5,0a25.51,25.51,0,0,0,2.45,10.24c1.36,2.91,5.67.38,4.32-2.52h0Z" transform="translate(-104.5 -105.08)"/>
</svg>
